<?xml version="1.0" standalone="no"?>
<!DOCTYPE svg PUBLIC "-//W3C//DTD SVG 20010904//EN"
 "http://www.w3.org/TR/2001/REC-SVG-20010904/DTD/svg10.dtd">
<svg version="1.0" xmlns="http://www.w3.org/2000/svg"
 width="512.000000pt" height="512.000000pt" viewBox="0 0 512.000000 512.000000"
 preserveAspectRatio="xMidYMid meet">
<metadata>
Created by potrace 1.15, written by Peter Selinger 2001-2017
</metadata>
<g transform="translate(0.000000,512.000000) scale(0.100000,-0.100000)"
fill="#000000" stroke="none">
<path d="M716 3450 c-16 -5 -43 -22 -60 -38 -30 -28 -36 -30 -150 -36 -107 -6
-122 -9 -159 -34 -110 -73 -116 -187 -14 -238 18 -9 46 -30 63 -46 l32 -30 38
46 c34 41 43 46 81 46 23 0 45 -5 49 -12 4 -6 8 -59 9 -117 1 -58 8 -128 15
-154 9 -35 10 -54 2 -72 -6 -12 -8 -33 -5 -45 3 -12 0 -39 -7 -61 -12 -34 -11
-44 3 -75 17 -34 17 -36 -4 -66 -19 -26 -21 -39 -16 -106 4 -55 2 -90 -9 -123
-12 -35 -13 -52 -5 -67 6 -11 8 -40 5 -64 -4 -31 3 -80 26 -173 32 -132 33
-141 13 -269 l-6 -39 73 7 c74 6 126 28 140 56 5 8 15 53 23 100 13 75 13 100
0 215 -18 162 -12 351 15 452 16 57 18 82 10 115 -7 35 -6 46 10 67 19 26 19
27 -1 65 -19 36 -19 45 -9 145 7 58 12 134 12 169 0 53 3 62 18 62 10 0 23 5
30 12 16 16 97 29 177 27 39 -1 90 -1 115 -1 25 0 88 1 140 1 52 1 122 -1 155
-3 33 -3 99 -8 147 -11 49 -4 90 -11 94 -16 3 -5 20 -9 39 -9 38 0 139 -24
190 -46 19 -8 45 -14 58 -14 36 0 136 -54 192 -103 59 -52 55 -65 -28 -93 -28
-9 -76 -29 -106 -45 -69 -33 -147 -53 -268 -68 -50 -6 -108 -19 -130 -28 -28
-12 -76 -18 -178 -20 -77 -2 -150 -9 -163 -15 -26 -13 -163 -15 -207 -4 -16 5
-35 15 -42 23 -9 12 -22 13 -63 6 -52 -8 -53 -8 -96 -83 -46 -80 -50 -99 -33
-149 14 -39 42 -51 97 -44 46 6 52 2 195 -127 99 -90 186 -163 228 -191 19
-13 54 -45 78 -72 28 -30 78 -65 140 -99 53 -28 113 -66 134 -85 20 -18 46
-33 57 -33 11 0 23 -7 26 -15 4 -8 14 -15 25 -15 31 0 203 -52 220 -66 10 -9
41 -14 91 -14 61 0 78 -3 92 -19 10 -11 23 -18 30 -15 7 3 23 -7 36 -21 l24
-25 28 27 c16 16 28 21 28 13 0 -10 15 -11 71 -6 39 3 81 12 92 18 12 7 42 13
67 14 79 2 169 28 186 52 8 12 20 20 25 16 14 -8 158 104 172 133 13 28 -11
94 -52 143 l-28 34 -33 -37 c-20 -23 -41 -37 -56 -37 -13 0 -28 -8 -33 -19 -7
-12 -33 -23 -86 -33 -41 -8 -77 -12 -79 -9 -2 3 -9 64 -16 135 -15 153 -8 313
19 413 15 57 17 82 9 115 -7 35 -6 46 10 67 19 26 19 27 -1 65 -19 36 -19 45
-9 145 7 58 12 134 12 169 0 53 3 62 18 62 10 0 23 5 30 12 16 16 97 29 177
27 39 -1 90 -1 115 -1 25 0 88 1 140 1 52 1 122 -1 155 -3 33 -3 99 -8 147
-11 49 -4 90 -11 94 -16 3 -5 20 -9 39 -9 38 0 139 -24 190 -46 19 -8 45 -14
58 -14 36 0 136 -54 192 -103 59 -52 55 -65 -28 -93 -28 -9 -76 -29 -106 -45
-69 -33 -147 -53 -268 -68 -50 -6 -108 -19 -130 -28 -28 -12 -76 -18 -178 -20
-77 -2 -150 -9 -163 -15 -26 -13 -163 -15 -207 -4 -16 5 -35 15 -42 23 -9 12
-22 13 -63 6 -52 -8 -53 -8 -96 -83 -46 -80 -50 -99 -33 -149 14 -39 42 -51
97 -44 46 6 52 2 195 -127 99 -90 186 -163 228 -191 19 -13 54 -45 78 -72 28
-30 78 -65 140 -99 53 -28 113 -66 134 -85 20 -18 46 -33 57 -33 11 0 23 -7
26 -15 4 -8 14 -15 25 -15 31 0 203 -52 220 -66 10 -9 41 -14 91 -14 61 0 78
-3 92 -19 10 -11 23 -18 30 -15 7 3 23 -7 36 -21 l24 -25 32 31 c32 31 32 31
61 14 29 -17 31 -17 70 9 37 25 43 26 91 16 40 -9 60 -8 103 4 29 9 63 16 75
16 12 0 29 11 38 25 9 14 21 23 27 19 14 -8 158 104 172 133 13 28 -11 94 -52
143 l-28 34 -33 -37 c-20 -23 -41 -37 -56 -37 -13 0 -28 -8 -33 -19 -24 -45
-412 -88 -488 -54 -18 8 -41 12 -53 8 -16 -5 -23 -2 -27 14 -6 24 -17 26 -61
10 -66 -23 -303 76 -387 161 -44 45 -54 50 -92 50 -38 0 -45 4 -53 26 -16 40
-89 122 -155 173 -85 65 -121 111 -76 96 10 -3 31 0 45 7 22 9 34 9 63 -1 34
-13 38 -12 53 7 13 15 20 18 28 10 9 -9 18 -8 36 2 22 11 29 10 61 -9 l37 -21
48 40 c37 31 62 43 102 50 95 16 117 22 129 36 6 8 19 14 28 14 9 1 41 10 71
21 30 11 80 24 110 29 52 8 59 13 147 103 112 115 126 148 99 234 -15 46 -33
72 -103 144 -73 76 -91 89 -118 89 -18 0 -59 12 -91 26 -183 81 -265 104 -399
115 -215 17 -548 31 -748 32 l-187 0 -6 24 c-6 21 -12 23 -68 23 -80 0 -123
-13 -160 -49 -30 -27 -37 -29 -150 -35 -110 -6 -122 -8 -163 -36 -24 -17 -50
-30 -56 -30 -7 0 -48 14 -91 30 -63 25 -104 33 -210 41 -216 17 -549 31 -749
32 l-187 0 -6 24 c-6 21 -11 23 -73 22 -36 0 -79 -5 -95 -9z m1745 -688 c-5
-10 -7 -29 -4 -41 3 -12 0 -40 -7 -62 -12 -34 -11 -44 3 -75 17 -34 17 -36 -4
-66 -19 -26 -21 -39 -16 -106 4 -55 2 -90 -9 -123 -12 -35 -13 -52 -5 -67 6
-11 8 -40 5 -64 -3 -27 2 -75 15 -131 12 -48 21 -90 21 -92 0 -11 -47 -4 -75
11 -16 8 -40 12 -53 9 -18 -4 -25 -1 -29 15 -6 23 -17 25 -61 9 -66 -23 -303
76 -387 161 -44 45 -54 50 -92 50 -38 0 -45 4 -53 26 -16 40 -89 122 -155 173
-85 65 -121 111 -76 96 10 -3 31 0 45 7 22 9 34 9 63 -1 34 -13 38 -12 53 7
13 15 20 18 28 10 9 -9 18 -8 36 2 22 11 29 10 61 -9 l37 -21 48 40 c37 31 62
43 102 50 95 16 117 22 129 36 6 8 19 14 28 14 9 1 41 10 71 21 30 11 79 24
109 29 49 8 61 15 115 69 57 57 80 67 57 23z"/>
</g>
</svg>
